# xmcd
# 
# Track frame offsets:
#     150
#     15356
#     33399
#     55446
#     73602
#     89778
#     108884
#     128899
#     147031
#     162331
# 
# Disc length: 2507
# 
# Revision: 0
# Processed by: cddbd v1.5.2PL0 Copyright (c) Steve Scherf et al.
# Submitted via: BonkEnc v1.0.15
# 
DISCID=8509c90a
DTITLE=Bretteville - Universe
DYEAR=2011
DGENRE=Country
TTITLE0=Universe
TTITLE1=Falling Down
TTITLE2=Hear My Calling
TTITLE3=Images
TTITLE4=Next Time
TTITLE5=Better off Alone
TTITLE6=Stop Me
TTITLE7=Flames
TTITLE8=My Heart's Still the Same
TTITLE9=Anymore
EXTD=
EXTT0=
EXTT1=
EXTT2=
EXTT3=
EXTT4=
EXTT5=
EXTT6=
EXTT7=
EXTT8=
EXTT9=
PLAYORDER=
